# xmcd
#
# Track frame offsets: 
#        150
#        21200
#        33490
#        58682
#        73227
#        93887
#        102337
#        121007
#        140107
#        152040
#        166100
#
# Disc length: 2671 seconds
#
# Revision: 0
# Processed by: cddbd v1.4PL0 Copyright (c) Steve Scherf et al.
# Submitted via: ExactAudioCopy v0.90b2
#
DISCID=900a6d0b
DTITLE=Willie Nelson - The Trouble Maker
DYEAR=1976
DGENRE=Gospel
TTITLE0=Uncloudy Day
TTITLE1=When The Roll Is Called Up Yonder
TTITLE2=Whispering Hope
TTITLE3=There Is A Fountain
TTITLE4=Will The Circle Be Unbroken
TTITLE5=The Trouble Maker
TTITLE6=In The Garden
TTITLE7=Where The Soul Never Dies
TTITLE8=Sweet Bye and Bye
TTITLE9=Shall We Gather
TTITLE10=Precious Memories
EXTD=
EXTT0=
EXTT1=
EXTT2=
EXTT3=
EXTT4=
EXTT5=
EXTT6=
EXTT7=
EXTT8=
EXTT9=
EXTT10=
PLAYORDER=
